<svg width="171" height="30" viewBox="0 0 171 30" fill="none" xmlns="http://www.w3.org/2000/svg">
<path d="M167.655 29H167.465C145.556 27.7396 142.445 9.24654 142.011 3.60269C141.976 3.16388 142.027 2.72246 142.163 2.30373C142.299 1.885 142.516 1.49718 142.802 1.16251C143.088 0.827839 143.437 0.552883 143.829 0.353398C144.221 0.153913 144.649 0.0338205 145.088 1.04577e-06H151.231C151.678 -0.00043146 152.115 0.1333 152.484 0.383874C152.854 0.634447 153.14 0.990317 153.305 1.40539L155 5.57692C155.163 5.98242 155.204 6.42693 155.117 6.85526C155.029 7.28358 154.818 7.67683 154.509 7.98615L152.135 10.3842C152.506 12.4931 153.515 14.4372 155.027 15.9533C156.538 17.4694 158.479 18.4845 160.586 18.8612L163.006 16.4631C163.319 16.1576 163.716 15.9514 164.147 15.8701C164.577 15.7887 165.021 15.8359 165.425 16.0058L169.629 17.69C170.037 17.8605 170.386 18.1489 170.63 18.5184C170.874 18.8878 171.003 19.3217 171 19.7646V25.6538C171 26.5413 170.648 27.3924 170.02 28.0199C169.393 28.6475 168.542 29 167.655 29ZM145.356 2.23077C145.06 2.23077 144.776 2.34828 144.567 2.55746C144.358 2.76663 144.241 3.05034 144.241 3.34615V3.43539C144.753 10.0385 148.043 25.6538 167.588 26.7692C167.735 26.7783 167.881 26.7583 168.02 26.7105C168.159 26.6627 168.287 26.5879 168.397 26.4905C168.506 26.3931 168.596 26.2749 168.66 26.1429C168.724 26.0108 168.761 25.8673 168.77 25.7208V19.7646L164.567 18.0804L161.367 21.2592L160.831 21.1923C151.131 19.9765 149.815 10.2727 149.815 10.1723L149.749 9.63692L152.915 6.43577L151.243 2.23077H145.356Z" fill="#FF8F60"/>
<path d="M116.467 4.81404H119V0.203043C117.773 0.0657965 116.541 -0.00196371 115.308 4.33029e-05C111.643 4.33029e-05 109.137 2.40704 109.137 6.81503V10.614H105V15.776H109.137V29H114.095V15.776H118.218L118.838 10.614H114.095V7.32253C114.095 5.80003 114.473 4.81404 116.467 4.81404Z" fill="#FF8F60"/>
<path d="M82 5.00023V25C82 26.135 81.108 27 79.9375 27H77.875V8.84919L65.5 17.4691L53.125 8.84919V27H51.0625C49.892 27 49 26.135 49 25V5.00023C49 4.43224 49.2207 3.93224 49.5909 3.57825C49.7837 3.39117 50.0134 3.24361 50.2662 3.14431C50.519 3.04502 50.7898 2.99603 51.0625 3.00025H51.7503L65.5 12.6672L79.2497 3.00025H79.9375C80.5233 3.00025 81.0389 3.21425 81.4091 3.57825C81.7793 3.93224 82 4.43224 82 5.00023Z" fill="#FF8F60"/>
<path fill-rule="evenodd" clip-rule="evenodd" d="M8.81591 0.09C10.4155 0.0163636 10.9255 0 15 0C19.0745 0 19.5845 0.0177273 21.1827 0.09C22.7809 0.162273 23.8718 0.417273 24.8264 0.786818C25.8259 1.16455 26.7327 1.755 27.4827 2.51864C28.2464 3.26727 28.8355 4.17273 29.2118 5.17364C29.5827 6.12818 29.8364 7.21909 29.91 8.81455C29.9836 10.4168 30 10.9268 30 15C30 19.0745 29.9823 19.5845 29.91 21.1841C29.8377 22.7795 29.5827 23.8705 29.2118 24.825C28.8354 25.826 28.2454 26.733 27.4827 27.4827C26.7327 28.2464 25.8259 28.8355 24.8264 29.2118C23.8718 29.5827 22.7809 29.8364 21.1855 29.91C19.5845 29.9836 19.0745 30 15 30C10.9255 30 10.4155 29.9823 8.81591 29.91C7.22045 29.8377 6.12955 29.5827 5.175 29.2118C4.17398 28.8354 3.26703 28.2453 2.51727 27.4827C1.75415 26.7336 1.16361 25.8271 0.786818 24.8264C0.417273 23.8718 0.163636 22.7809 0.09 21.1855C0.0163636 19.5832 0 19.0732 0 15C0 10.9255 0.0177273 10.4155 0.09 8.81727C0.162273 7.21909 0.417273 6.12818 0.786818 5.17364C1.16417 4.17284 1.75516 3.26634 2.51864 2.51727C3.26733 1.75432 4.17337 1.16379 5.17364 0.786818C6.12818 0.417273 7.22045 0.163636 8.81591 0.09ZM21.0614 2.79C19.4795 2.71773 19.005 2.70273 15 2.70273C10.995 2.70273 10.5205 2.71773 8.93864 2.79C7.47545 2.85682 6.68182 3.10091 6.15273 3.30682C5.45318 3.57955 4.95273 3.90273 4.42773 4.42773C3.93006 4.91189 3.54706 5.50129 3.30682 6.15273C3.10091 6.68182 2.85682 7.47545 2.79 8.93864C2.71773 10.5205 2.70273 10.995 2.70273 15C2.70273 19.005 2.71773 19.4795 2.79 21.0614C2.85682 22.5245 3.10091 23.3182 3.30682 23.8473C3.54682 24.4977 3.93 25.0882 4.42773 25.5723C4.91182 26.07 5.50227 26.4532 6.15273 26.6932C6.68182 26.8991 7.47545 27.1432 8.93864 27.21C10.5205 27.2823 10.9936 27.2973 15 27.2973C19.0064 27.2973 19.4795 27.2823 21.0614 27.21C22.5245 27.1432 23.3182 26.8991 23.8473 26.6932C24.5468 26.4205 25.0473 26.0973 25.5723 25.5723C26.07 25.0882 26.4532 24.4977 26.6932 23.8473C26.8991 23.3182 27.1432 22.5245 27.21 21.0614C27.2823 19.4795 27.2973 19.005 27.2973 15C27.2973 10.995 27.2823 10.5205 27.21 8.93864C27.1432 7.47545 26.8991 6.68182 26.6932 6.15273C26.4205 5.45318 26.0973 4.95273 25.5723 4.42773C25.0881 3.9301 24.4987 3.54711 23.8473 3.30682C23.3182 3.10091 22.5245 2.85682 21.0614 2.79ZM13.0841 19.6241C14.1541 20.0695 15.3455 20.1296 16.4549 19.7942C17.5643 19.4587 18.5228 18.7485 19.1667 17.7849C19.8107 16.8212 20.1001 15.6639 19.9855 14.5106C19.871 13.3573 19.3596 12.2795 18.5386 11.4614C18.0153 10.9384 17.3826 10.5379 16.6859 10.2888C15.9893 10.0397 15.246 9.94822 14.5098 10.0208C13.7735 10.0935 13.0625 10.3284 12.4279 10.7088C11.7933 11.0892 11.251 11.6056 10.84 12.2207C10.4289 12.8359 10.1593 13.5345 10.0507 14.2663C9.94206 14.9981 9.99702 15.7449 10.2116 16.453C10.4263 17.161 10.7952 17.8127 11.2919 18.361C11.7886 18.9093 12.4007 19.3407 13.0841 19.6241ZM9.54818 9.54818C10.2641 8.83224 11.1141 8.26432 12.0495 7.87686C12.9849 7.48939 13.9875 7.28996 15 7.28996C16.0125 7.28996 17.0151 7.48939 17.9505 7.87686C18.8859 8.26432 19.7359 8.83224 20.4518 9.54818C21.1678 10.2641 21.7357 11.1141 22.1231 12.0495C22.5106 12.9849 22.71 13.9875 22.71 15C22.71 16.0125 22.5106 17.0151 22.1231 17.9505C21.7357 18.8859 21.1678 19.7359 20.4518 20.4518C19.0059 21.8977 17.0448 22.71 15 22.71C12.9552 22.71 10.9941 21.8977 9.54818 20.4518C8.10227 19.0059 7.28997 17.0448 7.28997 15C7.28997 12.9552 8.10227 10.9941 9.54818 9.54818ZM24.42 8.43818C24.5974 8.27082 24.7394 8.06956 24.8377 7.84633C24.9359 7.62309 24.9884 7.38241 24.9919 7.13854C24.9955 6.89467 24.9501 6.65257 24.8584 6.42656C24.7667 6.20055 24.6306 5.99524 24.4581 5.82278C24.2857 5.65032 24.0804 5.51421 23.8544 5.42252C23.6283 5.33083 23.3862 5.28542 23.1424 5.28898C22.8985 5.29253 22.6578 5.34498 22.4346 5.44322C22.2113 5.54146 22.0101 5.68349 21.8427 5.86091C21.5172 6.20595 21.339 6.66426 21.346 7.13854C21.3529 7.61283 21.5444 8.06574 21.8798 8.40115C22.2152 8.73656 22.6681 8.92804 23.1424 8.93495C23.6167 8.94187 24.075 8.76367 24.42 8.43818Z" fill="#FF8F60"/>
</svg>
