<svg width="160" height="45" viewBox="0 0 160 45" fill="none" xmlns="http://www.w3.org/2000/svg">
<path d="M44.4756 28.1555C48.1397 28.1555 51.11 25.1829 51.11 21.516C51.11 17.8491 48.1397 14.8765 44.4756 14.8765C40.8115 14.8765 37.8412 17.8491 37.8412 21.516C37.8412 25.1829 40.8115 28.1555 44.4756 28.1555Z" fill="#FF8F60"/>
<path d="M26.973 21.516C26.973 20.1765 27.1185 18.8806 27.4095 17.6284C29.1699 9.82411 36.1535 4 44.4756 4C54.1362 4 61.9782 11.848 61.9782 21.516C61.9782 29.131 57.1188 35.6104 50.3389 38.0274C49.5532 38.304 48.753 38.5224 47.9237 38.6971" stroke="#FF8F60" stroke-width="6.6" stroke-miterlimit="10"/>
<path d="M51.7356 44.5795C51.3719 31.6937 40.8383 21.3559 27.8605 21.3559C14.8827 21.3559 4.36373 31.6937 4 44.5795" stroke="#FF8F60" stroke-width="6.6" stroke-miterlimit="10"/>
<path d="M27.8605 36.1782C23.0884 36.1782 19.1747 39.8765 18.8401 44.5649H36.8955C36.5463 39.8765 32.6472 36.1782 27.8751 36.1782H27.8605Z" fill="#FF8F60"/>
<path d="M75.36 37V22.4H78.76V28.72H78.8L83.96 22.4H87.96L82.24 29.46L88.16 37H84.16L78.8 30.2H78.76V37H75.36ZM89.8131 25.26V22.4H93.2131V25.26H89.8131ZM89.8131 37V26.86H93.2131V37H89.8131ZM95.7869 37V26.6H98.9469L98.9869 27.82H99.0269C99.4669 27.3267 99.9602 26.9667 100.507 26.74C101.054 26.5133 101.687 26.4 102.407 26.4C103.634 26.4 104.534 26.74 105.107 27.42C105.694 28.0867 105.987 29.1467 105.987 30.6V37H102.647V31.26C102.647 30.5133 102.527 29.9733 102.287 29.64C102.047 29.3067 101.66 29.14 101.127 29.14C100.74 29.14 100.394 29.22 100.087 29.38C99.7802 29.5267 99.5402 29.7333 99.3669 30C99.1935 30.2667 99.1069 30.58 99.1069 30.94V37H95.7869ZM112.893 37.2C111.573 37.2 110.62 36.94 110.033 36.42C109.447 35.9 109.153 35.0467 109.153 33.86V29.06H107.073V26.6H109.153V23.2H112.533V26.6H115.673V29.06H112.533V33.14C112.533 33.6867 112.607 34.06 112.753 34.26C112.913 34.46 113.207 34.56 113.633 34.56C113.887 34.56 114.173 34.5333 114.493 34.48C114.813 34.4267 115.1 34.3533 115.353 34.26L115.633 36.82C115.127 36.9533 114.653 37.0467 114.213 37.1C113.787 37.1667 113.347 37.2 112.893 37.2ZM121.659 37.2C121.192 37.2 120.685 37.1667 120.139 37.1C119.605 37.0333 119.085 36.9467 118.579 36.84C118.072 36.72 117.632 36.5933 117.259 36.46L117.619 34C118.299 34.24 118.939 34.4267 119.539 34.56C120.139 34.68 120.725 34.74 121.299 34.74C121.859 34.74 122.259 34.6733 122.499 34.54C122.739 34.4067 122.859 34.1933 122.859 33.9C122.859 33.7533 122.819 33.6267 122.739 33.52C122.659 33.4133 122.512 33.32 122.299 33.24C122.085 33.16 121.779 33.0733 121.379 32.98C120.459 32.7533 119.685 32.4867 119.059 32.18C118.432 31.8733 117.959 31.5 117.639 31.06C117.332 30.62 117.179 30.1 117.179 29.5C117.179 28.4867 117.559 27.72 118.319 27.2C119.092 26.6667 120.219 26.4 121.699 26.4C122.352 26.4 123.045 26.4533 123.779 26.56C124.512 26.6667 125.219 26.82 125.899 27.02L125.519 29.48C124.865 29.2533 124.265 29.0933 123.719 29C123.185 28.9067 122.659 28.86 122.139 28.86C121.592 28.86 121.192 28.92 120.939 29.04C120.699 29.1467 120.579 29.3267 120.579 29.58C120.579 29.7267 120.619 29.8533 120.699 29.96C120.792 30.0667 120.945 30.1667 121.159 30.26C121.372 30.34 121.665 30.4267 122.039 30.52C122.719 30.6667 123.319 30.8533 123.839 31.08C124.359 31.2933 124.792 31.54 125.139 31.82C125.499 32.0867 125.772 32.4 125.959 32.76C126.145 33.12 126.239 33.5267 126.239 33.98C126.239 34.6333 126.052 35.2 125.679 35.68C125.305 36.16 124.772 36.5333 124.079 36.8C123.399 37.0667 122.592 37.2 121.659 37.2ZM131.312 37.2C130.112 37.2 129.232 36.8667 128.672 36.2C128.112 35.52 127.832 34.4533 127.832 33V26.6H131.172V32.34C131.172 33.0867 131.278 33.6267 131.492 33.96C131.718 34.2933 132.078 34.46 132.572 34.46C132.958 34.46 133.292 34.3867 133.572 34.24C133.865 34.08 134.092 33.8667 134.252 33.6C134.425 33.32 134.512 33.0067 134.512 32.66V26.6H137.832V37H134.672L134.632 35.78H134.592C134.152 36.2733 133.672 36.6333 133.152 36.86C132.632 37.0867 132.018 37.2 131.312 37.2Z" fill="#FF8F60"/>
</svg>
