<svg width="33" height="24" viewBox="0 0 33 24" fill="none" xmlns="http://www.w3.org/2000/svg">
<path d="M33 2.00023V22C33 23.135 32.108 24 30.9375 24H28.875V5.84919L16.5 14.4691L4.125 5.84919V24H2.0625C0.892031 24 0 23.135 0 22V2.00023C0 1.43224 0.220688 0.932242 0.590906 0.578246C0.783722 0.391175 1.01336 0.243606 1.26616 0.144313C1.51897 0.0450196 1.78978 -0.0039718 2.0625 0.000251572H2.75034L16.5 9.66715L30.2497 0.000251572H30.9375C31.5233 0.000251572 32.0389 0.214249 32.4091 0.578246C32.7793 0.932242 33 1.43224 33 2.00023Z" fill="#FF8F60"/>
</svg>
